<mxfile host="65bd71144e">
    <diagram id="_9Wq98w2PZe2g8l1U9Ra" name="MVC図">
        <mxGraphModel dx="1002" dy="563" grid="1" gridSize="10" guides="1" tooltips="1" connect="1" arrows="1" fold="1" page="1" pageScale="1" pageWidth="827" pageHeight="1169" math="0" shadow="0">
            <root>
                <mxCell id="0"/>
                <mxCell id="1" parent="0"/>
                <mxCell id="2" value="&lt;b&gt;&lt;font style=&quot;font-size: 15px;&quot;&gt;Controller&lt;/font&gt;&lt;/b&gt;" style="rounded=0;whiteSpace=wrap;html=1;fillColor=#ffe6cc;strokeColor=#d79b00;" parent="1" vertex="1">
                    <mxGeometry x="280" y="140" width="120" height="60" as="geometry"/>
                </mxCell>
                <mxCell id="4" value="Model" style="shape=cylinder3;whiteSpace=wrap;html=1;boundedLbl=1;backgroundOutline=1;size=15;fontSize=15;fillColor=#f8cecc;strokeColor=#b85450;" parent="1" vertex="1">
                    <mxGeometry x="140" y="300" width="100" height="80" as="geometry"/>
                </mxCell>
                <mxCell id="5" value="&lt;b&gt;&lt;font style=&quot;font-size: 15px;&quot;&gt;View&lt;/font&gt;&lt;/b&gt;" style="rounded=0;whiteSpace=wrap;html=1;fillColor=#dae8fc;strokeColor=#6c8ebf;" parent="1" vertex="1">
                    <mxGeometry x="414" y="320" width="120" height="60" as="geometry"/>
                </mxCell>
                <mxCell id="6" value="User" style="shape=umlActor;verticalLabelPosition=bottom;verticalAlign=top;html=1;outlineConnect=0;fontSize=15;" parent="1" vertex="1">
                    <mxGeometry x="710" y="300" width="40" height="80" as="geometry"/>
                </mxCell>
                <mxCell id="10" value="" style="endArrow=classic;html=1;fontSize=15;" parent="1" edge="1">
                    <mxGeometry width="50" height="50" relative="1" as="geometry">
                        <mxPoint x="660" y="335" as="sourcePoint"/>
                        <mxPoint x="560" y="335" as="targetPoint"/>
                    </mxGeometry>
                </mxCell>
                <mxCell id="11" value="&lt;font style=&quot;font-size: 17px;&quot;&gt;&lt;b&gt;①&lt;/b&gt;&lt;/font&gt;" style="text;html=1;strokeColor=none;fillColor=none;align=center;verticalAlign=middle;whiteSpace=wrap;rounded=0;fontSize=15;" parent="1" vertex="1">
                    <mxGeometry x="590" y="290" width="40" height="30" as="geometry"/>
                </mxCell>
                <mxCell id="12" value="" style="endArrow=classic;html=1;fontSize=15;" parent="1" edge="1">
                    <mxGeometry width="50" height="50" relative="1" as="geometry">
                        <mxPoint x="474" y="280" as="sourcePoint"/>
                        <mxPoint x="414" y="210" as="targetPoint"/>
                    </mxGeometry>
                </mxCell>
                <mxCell id="13" value="" style="endArrow=classic;html=1;fontSize=15;" parent="1" edge="1">
                    <mxGeometry width="50" height="50" relative="1" as="geometry">
                        <mxPoint x="562" y="360" as="sourcePoint"/>
                        <mxPoint x="662" y="360" as="targetPoint"/>
                    </mxGeometry>
                </mxCell>
                <mxCell id="14" value="&lt;font style=&quot;font-size: 17px;&quot;&gt;&lt;b&gt;②&lt;/b&gt;&lt;/font&gt;" style="text;html=1;strokeColor=none;fillColor=none;align=center;verticalAlign=middle;whiteSpace=wrap;rounded=0;fontSize=15;" parent="1" vertex="1">
                    <mxGeometry x="440" y="220" width="40" height="30" as="geometry"/>
                </mxCell>
                <mxCell id="15" value="" style="endArrow=classic;html=1;fontSize=15;" parent="1" edge="1">
                    <mxGeometry width="50" height="50" relative="1" as="geometry">
                        <mxPoint x="380" y="230" as="sourcePoint"/>
                        <mxPoint x="440" y="300" as="targetPoint"/>
                    </mxGeometry>
                </mxCell>
                <mxCell id="16" value="" style="endArrow=classic;html=1;fontSize=15;" parent="1" edge="1">
                    <mxGeometry width="50" height="50" relative="1" as="geometry">
                        <mxPoint x="280" y="220" as="sourcePoint"/>
                        <mxPoint x="220" y="280" as="targetPoint"/>
                    </mxGeometry>
                </mxCell>
                <mxCell id="17" value="" style="endArrow=classic;html=1;fontSize=15;" parent="1" edge="1">
                    <mxGeometry width="50" height="50" relative="1" as="geometry">
                        <mxPoint x="190" y="260" as="sourcePoint"/>
                        <mxPoint x="250" y="200" as="targetPoint"/>
                    </mxGeometry>
                </mxCell>
                <mxCell id="18" value="&lt;font style=&quot;font-size: 17px;&quot;&gt;&lt;b&gt;④&lt;/b&gt;&lt;/font&gt;" style="text;html=1;strokeColor=none;fillColor=none;align=center;verticalAlign=middle;whiteSpace=wrap;rounded=0;fontSize=15;" parent="1" vertex="1">
                    <mxGeometry x="170" y="205" width="40" height="30" as="geometry"/>
                </mxCell>
                <mxCell id="19" value="&lt;font style=&quot;font-size: 17px;&quot;&gt;&lt;b&gt;③&lt;/b&gt;&lt;/font&gt;" style="text;html=1;strokeColor=none;fillColor=none;align=center;verticalAlign=middle;whiteSpace=wrap;rounded=0;fontSize=15;" parent="1" vertex="1">
                    <mxGeometry x="250" y="250" width="40" height="30" as="geometry"/>
                </mxCell>
                <mxCell id="20" value="&lt;font style=&quot;font-size: 17px;&quot;&gt;&lt;b&gt;⑤&lt;/b&gt;&lt;/font&gt;" style="text;html=1;strokeColor=none;fillColor=none;align=center;verticalAlign=middle;whiteSpace=wrap;rounded=0;fontSize=15;" parent="1" vertex="1">
                    <mxGeometry x="360" y="250" width="40" height="30" as="geometry"/>
                </mxCell>
                <mxCell id="21" value="&lt;font style=&quot;font-size: 17px;&quot;&gt;&lt;b&gt;⑥&lt;/b&gt;&lt;/font&gt;" style="text;html=1;strokeColor=none;fillColor=none;align=center;verticalAlign=middle;whiteSpace=wrap;rounded=0;fontSize=15;" parent="1" vertex="1">
                    <mxGeometry x="590" y="380" width="40" height="30" as="geometry"/>
                </mxCell>
            </root>
        </mxGraphModel>
    </diagram>
    <diagram id="C5LIqaalG11yF7Q2yL-H" name="MVCの実現方法">
        <mxGraphModel dx="969" dy="563" grid="1" gridSize="10" guides="1" tooltips="1" connect="1" arrows="1" fold="1" page="1" pageScale="1" pageWidth="827" pageHeight="1169" math="0" shadow="0">
            <root>
                <mxCell id="0"/>
                <mxCell id="1" parent="0"/>
                <mxCell id="K3lTMJzGfVlB7wKhvOA0-58" value="" style="rounded=1;whiteSpace=wrap;html=1;fillColor=none;strokeColor=#0000CC;strokeWidth=2;" parent="1" vertex="1">
                    <mxGeometry x="330" y="210" width="440" height="155" as="geometry"/>
                </mxCell>
                <mxCell id="K3lTMJzGfVlB7wKhvOA0-59" value="" style="rounded=1;whiteSpace=wrap;html=1;fillColor=none;strokeColor=#0000CC;strokeWidth=2;" parent="1" vertex="1">
                    <mxGeometry x="330" y="420" width="430" height="160" as="geometry"/>
                </mxCell>
                <mxCell id="K3lTMJzGfVlB7wKhvOA0-61" value="" style="rounded=1;whiteSpace=wrap;html=1;strokeColor=#FF8000;fillColor=none;strokeWidth=2;" parent="1" vertex="1">
                    <mxGeometry x="340" y="260" width="140" height="315" as="geometry"/>
                </mxCell>
                <mxCell id="K3lTMJzGfVlB7wKhvOA0-36" style="edgeStyle=none;html=1;" parent="1" edge="1">
                    <mxGeometry relative="1" as="geometry">
                        <mxPoint x="230" y="312" as="targetPoint"/>
                        <mxPoint x="330" y="312" as="sourcePoint"/>
                    </mxGeometry>
                </mxCell>
                <mxCell id="K3lTMJzGfVlB7wKhvOA0-34" style="edgeStyle=none;html=1;" parent="1" edge="1">
                    <mxGeometry relative="1" as="geometry">
                        <mxPoint x="330" y="282" as="targetPoint"/>
                        <mxPoint x="230" y="282" as="sourcePoint"/>
                    </mxGeometry>
                </mxCell>
                <mxCell id="K3lTMJzGfVlB7wKhvOA0-3" value="&lt;b&gt;&lt;font style=&quot;font-size: 15px;&quot;&gt;View&lt;/font&gt;&lt;/b&gt;" style="rounded=0;whiteSpace=wrap;html=1;fillColor=#dae8fc;strokeColor=#6c8ebf;" parent="1" vertex="1">
                    <mxGeometry x="610" y="272" width="120" height="60" as="geometry"/>
                </mxCell>
                <mxCell id="K3lTMJzGfVlB7wKhvOA0-4" value="User" style="shape=umlActor;verticalLabelPosition=bottom;verticalAlign=top;html=1;outlineConnect=0;fontSize=15;" parent="1" vertex="1">
                    <mxGeometry x="860" y="352" width="70" height="138" as="geometry"/>
                </mxCell>
                <mxCell id="K3lTMJzGfVlB7wKhvOA0-5" value="" style="endArrow=classic;html=1;fontSize=15;" parent="1" edge="1">
                    <mxGeometry width="50" height="50" relative="1" as="geometry">
                        <mxPoint x="850" y="340" as="sourcePoint"/>
                        <mxPoint x="750" y="297" as="targetPoint"/>
                    </mxGeometry>
                </mxCell>
                <mxCell id="K3lTMJzGfVlB7wKhvOA0-6" value="&lt;font style=&quot;font-size: 17px;&quot;&gt;&lt;b&gt;①&lt;/b&gt;&lt;/font&gt;" style="text;html=1;strokeColor=none;fillColor=none;align=center;verticalAlign=middle;whiteSpace=wrap;rounded=0;fontSize=15;" parent="1" vertex="1">
                    <mxGeometry x="799" y="292" width="40" height="30" as="geometry"/>
                </mxCell>
                <mxCell id="K3lTMJzGfVlB7wKhvOA0-8" value="" style="endArrow=classic;html=1;fontSize=15;" parent="1" edge="1">
                    <mxGeometry width="50" height="50" relative="1" as="geometry">
                        <mxPoint x="746" y="330" as="sourcePoint"/>
                        <mxPoint x="840" y="370" as="targetPoint"/>
                    </mxGeometry>
                </mxCell>
                <mxCell id="K3lTMJzGfVlB7wKhvOA0-13" value="&lt;font style=&quot;font-size: 17px;&quot;&gt;&lt;b&gt;④&lt;/b&gt;&lt;/font&gt;" style="text;html=1;strokeColor=none;fillColor=none;align=center;verticalAlign=middle;whiteSpace=wrap;rounded=0;fontSize=15;" parent="1" vertex="1">
                    <mxGeometry x="260" y="245" width="40" height="30" as="geometry"/>
                </mxCell>
                <mxCell id="K3lTMJzGfVlB7wKhvOA0-14" value="&lt;font style=&quot;font-size: 17px;&quot;&gt;&lt;b&gt;③&lt;/b&gt;&lt;/font&gt;" style="text;html=1;strokeColor=none;fillColor=none;align=center;verticalAlign=middle;whiteSpace=wrap;rounded=0;fontSize=15;" parent="1" vertex="1">
                    <mxGeometry x="260" y="322" width="40" height="30" as="geometry"/>
                </mxCell>
                <mxCell id="K3lTMJzGfVlB7wKhvOA0-16" value="&lt;font style=&quot;font-size: 17px;&quot;&gt;&lt;b&gt;⑥&lt;/b&gt;&lt;/font&gt;" style="text;html=1;strokeColor=none;fillColor=none;align=center;verticalAlign=middle;whiteSpace=wrap;rounded=0;fontSize=15;" parent="1" vertex="1">
                    <mxGeometry x="765" y="354" width="40" height="30" as="geometry"/>
                </mxCell>
                <mxCell id="K3lTMJzGfVlB7wKhvOA0-35" value="Model" style="shape=cylinder3;whiteSpace=wrap;html=1;boundedLbl=1;backgroundOutline=1;size=15;fontSize=15;fillColor=#f8cecc;strokeColor=#b85450;" parent="1" vertex="1">
                    <mxGeometry x="110" y="275" width="100" height="98" as="geometry"/>
                </mxCell>
                <mxCell id="K3lTMJzGfVlB7wKhvOA0-37" value="&lt;b&gt;&lt;font style=&quot;font-size: 15px;&quot;&gt;Controller&lt;/font&gt;&lt;/b&gt;" style="rounded=0;whiteSpace=wrap;html=1;fillColor=#ffe6cc;strokeColor=#d79b00;" parent="1" vertex="1">
                    <mxGeometry x="350" y="272" width="120" height="60" as="geometry"/>
                </mxCell>
                <mxCell id="K3lTMJzGfVlB7wKhvOA0-38" style="edgeStyle=none;html=1;" parent="1" edge="1">
                    <mxGeometry relative="1" as="geometry">
                        <mxPoint x="490" y="312" as="targetPoint"/>
                        <mxPoint x="590" y="312" as="sourcePoint"/>
                    </mxGeometry>
                </mxCell>
                <mxCell id="K3lTMJzGfVlB7wKhvOA0-39" style="edgeStyle=none;html=1;" parent="1" edge="1">
                    <mxGeometry relative="1" as="geometry">
                        <mxPoint x="590" y="282" as="targetPoint"/>
                        <mxPoint x="490" y="282" as="sourcePoint"/>
                    </mxGeometry>
                </mxCell>
                <mxCell id="K3lTMJzGfVlB7wKhvOA0-40" value="&lt;font style=&quot;font-size: 17px;&quot;&gt;&lt;b&gt;②&lt;/b&gt;&lt;/font&gt;" style="text;html=1;strokeColor=none;fillColor=none;align=center;verticalAlign=middle;whiteSpace=wrap;rounded=0;fontSize=15;" parent="1" vertex="1">
                    <mxGeometry x="520" y="251" width="40" height="30" as="geometry"/>
                </mxCell>
                <mxCell id="K3lTMJzGfVlB7wKhvOA0-41" value="&lt;font style=&quot;font-size: 17px;&quot;&gt;&lt;b&gt;⑤&lt;/b&gt;&lt;/font&gt;" style="text;html=1;strokeColor=none;fillColor=none;align=center;verticalAlign=middle;whiteSpace=wrap;rounded=0;fontSize=15;" parent="1" vertex="1">
                    <mxGeometry x="520" y="314" width="40" height="30" as="geometry"/>
                </mxCell>
                <mxCell id="K3lTMJzGfVlB7wKhvOA0-42" style="edgeStyle=none;html=1;" parent="1" edge="1">
                    <mxGeometry relative="1" as="geometry">
                        <mxPoint x="230" y="437" as="targetPoint"/>
                        <mxPoint x="320" y="477" as="sourcePoint"/>
                    </mxGeometry>
                </mxCell>
                <mxCell id="K3lTMJzGfVlB7wKhvOA0-43" style="edgeStyle=none;html=1;" parent="1" edge="1">
                    <mxGeometry relative="1" as="geometry">
                        <mxPoint x="319.9999999999998" y="439" as="targetPoint"/>
                        <mxPoint x="230" y="397" as="sourcePoint"/>
                    </mxGeometry>
                </mxCell>
                <mxCell id="K3lTMJzGfVlB7wKhvOA0-44" value="&lt;b&gt;&lt;font style=&quot;font-size: 15px;&quot;&gt;View&lt;/font&gt;&lt;/b&gt;" style="rounded=0;whiteSpace=wrap;html=1;fillColor=#dae8fc;strokeColor=#6c8ebf;" parent="1" vertex="1">
                    <mxGeometry x="610" y="492" width="120" height="60" as="geometry"/>
                </mxCell>
                <mxCell id="K3lTMJzGfVlB7wKhvOA0-49" value="&lt;font style=&quot;font-size: 17px;&quot;&gt;&lt;b&gt;④&lt;/b&gt;&lt;/font&gt;" style="text;html=1;strokeColor=none;fillColor=none;align=center;verticalAlign=middle;whiteSpace=wrap;rounded=0;fontSize=15;" parent="1" vertex="1">
                    <mxGeometry x="260" y="387" width="40" height="30" as="geometry"/>
                </mxCell>
                <mxCell id="K3lTMJzGfVlB7wKhvOA0-50" value="&lt;font style=&quot;font-size: 17px;&quot;&gt;&lt;b&gt;③&lt;/b&gt;&lt;/font&gt;" style="text;html=1;strokeColor=none;fillColor=none;align=center;verticalAlign=middle;whiteSpace=wrap;rounded=0;fontSize=15;" parent="1" vertex="1">
                    <mxGeometry x="240" y="462" width="40" height="30" as="geometry"/>
                </mxCell>
                <mxCell id="K3lTMJzGfVlB7wKhvOA0-53" value="&lt;b&gt;&lt;font style=&quot;font-size: 15px;&quot;&gt;Controller&lt;/font&gt;&lt;/b&gt;" style="rounded=0;whiteSpace=wrap;html=1;fillColor=#ffe6cc;strokeColor=#d79b00;" parent="1" vertex="1">
                    <mxGeometry x="350" y="492" width="120" height="60" as="geometry"/>
                </mxCell>
                <mxCell id="K3lTMJzGfVlB7wKhvOA0-54" style="edgeStyle=none;html=1;" parent="1" edge="1">
                    <mxGeometry relative="1" as="geometry">
                        <mxPoint x="489.9999999999998" y="532" as="targetPoint"/>
                        <mxPoint x="589.9999999999998" y="532" as="sourcePoint"/>
                    </mxGeometry>
                </mxCell>
                <mxCell id="K3lTMJzGfVlB7wKhvOA0-55" style="edgeStyle=none;html=1;" parent="1" edge="1">
                    <mxGeometry relative="1" as="geometry">
                        <mxPoint x="589.9999999999998" y="502" as="targetPoint"/>
                        <mxPoint x="489.9999999999998" y="502" as="sourcePoint"/>
                    </mxGeometry>
                </mxCell>
                <mxCell id="K3lTMJzGfVlB7wKhvOA0-56" value="&lt;font style=&quot;font-size: 17px;&quot;&gt;&lt;b&gt;②&lt;/b&gt;&lt;/font&gt;" style="text;html=1;strokeColor=none;fillColor=none;align=center;verticalAlign=middle;whiteSpace=wrap;rounded=0;fontSize=15;" parent="1" vertex="1">
                    <mxGeometry x="520" y="471" width="40" height="30" as="geometry"/>
                </mxCell>
                <mxCell id="K3lTMJzGfVlB7wKhvOA0-57" value="&lt;font style=&quot;font-size: 17px;&quot;&gt;&lt;b&gt;⑤&lt;/b&gt;&lt;/font&gt;" style="text;html=1;strokeColor=none;fillColor=none;align=center;verticalAlign=middle;whiteSpace=wrap;rounded=0;fontSize=15;" parent="1" vertex="1">
                    <mxGeometry x="520" y="534" width="40" height="30" as="geometry"/>
                </mxCell>
                <mxCell id="K3lTMJzGfVlB7wKhvOA0-63" style="edgeStyle=none;html=1;strokeColor=#FF8000;strokeWidth=2;exitX=0.75;exitY=1;exitDx=0;exitDy=0;" parent="1" source="K3lTMJzGfVlB7wKhvOA0-62" edge="1">
                    <mxGeometry relative="1" as="geometry">
                        <mxPoint x="350" y="260" as="targetPoint"/>
                    </mxGeometry>
                </mxCell>
                <mxCell id="K3lTMJzGfVlB7wKhvOA0-62" value="&lt;b&gt;&lt;font style=&quot;font-size: 15px;&quot;&gt;App&lt;/font&gt;&lt;/b&gt;" style="rounded=0;whiteSpace=wrap;html=1;fillColor=#ffe6cc;strokeColor=#d79b00;" parent="1" vertex="1">
                    <mxGeometry x="190" y="135" width="120" height="60" as="geometry"/>
                </mxCell>
                <mxCell id="K3lTMJzGfVlB7wKhvOA0-64" value="Appクラスで全てのContorllerを&lt;br&gt;管理し、ページごとにControllerを&lt;br&gt;切替えて他ページとの連携を行う" style="shape=callout;whiteSpace=wrap;html=1;perimeter=calloutPerimeter;strokeColor=#FF8000;strokeWidth=2;fillColor=default;position2=0;size=30;position=0.18;" parent="1" vertex="1">
                    <mxGeometry x="330" y="80" width="220" height="90" as="geometry"/>
                </mxCell>
                <mxCell id="K3lTMJzGfVlB7wKhvOA0-67" value="&lt;b&gt;&lt;font color=&quot;#0000cc&quot;&gt;Page2&lt;/font&gt;&lt;/b&gt;" style="text;html=1;strokeColor=none;fillColor=none;align=center;verticalAlign=middle;whiteSpace=wrap;rounded=0;strokeWidth=2;" parent="1" vertex="1">
                    <mxGeometry x="350" y="426" width="60" height="30" as="geometry"/>
                </mxCell>
                <mxCell id="K3lTMJzGfVlB7wKhvOA0-69" value="&lt;b&gt;&lt;font color=&quot;#0000cc&quot;&gt;Page1&lt;/font&gt;&lt;/b&gt;" style="text;html=1;strokeColor=none;fillColor=none;align=center;verticalAlign=middle;whiteSpace=wrap;rounded=0;strokeWidth=2;" parent="1" vertex="1">
                    <mxGeometry x="350" y="215" width="60" height="30" as="geometry"/>
                </mxCell>
                <mxCell id="A53QfD-NVUz2xv4ZWYyD-6" value="" style="endArrow=classic;html=1;fontSize=15;" edge="1" parent="1">
                    <mxGeometry width="50" height="50" relative="1" as="geometry">
                        <mxPoint x="840" y="473" as="sourcePoint"/>
                        <mxPoint x="740" y="510" as="targetPoint"/>
                    </mxGeometry>
                </mxCell>
                <mxCell id="A53QfD-NVUz2xv4ZWYyD-7" value="" style="endArrow=classic;html=1;fontSize=15;exitX=1;exitY=0.75;exitDx=0;exitDy=0;" edge="1" parent="1">
                    <mxGeometry width="50" height="50" relative="1" as="geometry">
                        <mxPoint x="750" y="545" as="sourcePoint"/>
                        <mxPoint x="851" y="508" as="targetPoint"/>
                    </mxGeometry>
                </mxCell>
                <mxCell id="A53QfD-NVUz2xv4ZWYyD-8" value="&lt;font style=&quot;font-size: 17px;&quot;&gt;&lt;b&gt;①&lt;/b&gt;&lt;/font&gt;" style="text;html=1;strokeColor=none;fillColor=none;align=center;verticalAlign=middle;whiteSpace=wrap;rounded=0;fontSize=15;" vertex="1" parent="1">
                    <mxGeometry x="770" y="456" width="40" height="30" as="geometry"/>
                </mxCell>
                <mxCell id="A53QfD-NVUz2xv4ZWYyD-9" value="&lt;font style=&quot;font-size: 17px;&quot;&gt;&lt;b&gt;⑥&lt;/b&gt;&lt;/font&gt;" style="text;html=1;strokeColor=none;fillColor=none;align=center;verticalAlign=middle;whiteSpace=wrap;rounded=0;fontSize=15;" vertex="1" parent="1">
                    <mxGeometry x="787" y="531" width="40" height="30" as="geometry"/>
                </mxCell>
            </root>
        </mxGraphModel>
    </diagram>
    <diagram id="2ozvk4-snMi51rFjoHVi" name="アーキテクチャ図（全体構成）">
        <mxGraphModel dx="825" dy="662" grid="1" gridSize="10" guides="1" tooltips="1" connect="1" arrows="1" fold="1" page="1" pageScale="1" pageWidth="827" pageHeight="1169" math="0" shadow="0">
            <root>
                <mxCell id="0"/>
                <mxCell id="1" parent="0"/>
                <mxCell id="exjSf0XK6fxZVPqQZvPU-43" value="" style="rounded=1;whiteSpace=wrap;html=1;strokeColor=#66CC00;fillColor=none;strokeWidth=2;" vertex="1" parent="1">
                    <mxGeometry x="530" y="140" width="570" height="520" as="geometry"/>
                </mxCell>
                <mxCell id="exjSf0XK6fxZVPqQZvPU-1" value="" style="rounded=1;whiteSpace=wrap;html=1;fillColor=none;strokeColor=#0000CC;strokeWidth=2;" vertex="1" parent="1">
                    <mxGeometry x="910" y="240" width="650" height="155" as="geometry"/>
                </mxCell>
                <mxCell id="exjSf0XK6fxZVPqQZvPU-2" value="" style="rounded=1;whiteSpace=wrap;html=1;fillColor=none;strokeColor=#0000CC;strokeWidth=2;" vertex="1" parent="1">
                    <mxGeometry x="910" y="450" width="650" height="160" as="geometry"/>
                </mxCell>
                <mxCell id="exjSf0XK6fxZVPqQZvPU-3" value="" style="rounded=1;whiteSpace=wrap;html=1;strokeColor=#FF8000;fillColor=none;strokeWidth=2;" vertex="1" parent="1">
                    <mxGeometry x="920" y="290" width="140" height="315" as="geometry"/>
                </mxCell>
                <mxCell id="exjSf0XK6fxZVPqQZvPU-4" style="edgeStyle=none;html=1;" edge="1" parent="1">
                    <mxGeometry relative="1" as="geometry">
                        <mxPoint x="810" y="342" as="targetPoint"/>
                        <mxPoint x="910" y="342" as="sourcePoint"/>
                    </mxGeometry>
                </mxCell>
                <mxCell id="exjSf0XK6fxZVPqQZvPU-5" style="edgeStyle=none;html=1;" edge="1" parent="1">
                    <mxGeometry relative="1" as="geometry">
                        <mxPoint x="910" y="312" as="targetPoint"/>
                        <mxPoint x="810" y="312" as="sourcePoint"/>
                    </mxGeometry>
                </mxCell>
                <mxCell id="exjSf0XK6fxZVPqQZvPU-6" value="&lt;b&gt;&lt;font style=&quot;font-size: 15px;&quot;&gt;View&lt;/font&gt;&lt;/b&gt;" style="rounded=0;whiteSpace=wrap;html=1;fillColor=#dae8fc;strokeColor=#6c8ebf;" vertex="1" parent="1">
                    <mxGeometry x="1190" y="302" width="120" height="60" as="geometry"/>
                </mxCell>
                <mxCell id="exjSf0XK6fxZVPqQZvPU-7" value="User" style="shape=umlActor;verticalLabelPosition=bottom;verticalAlign=top;html=1;outlineConnect=0;fontSize=15;" vertex="1" parent="1">
                    <mxGeometry x="1460" y="282" width="40" height="80" as="geometry"/>
                </mxCell>
                <mxCell id="exjSf0XK6fxZVPqQZvPU-8" value="" style="endArrow=classic;html=1;fontSize=15;" edge="1" parent="1">
                    <mxGeometry width="50" height="50" relative="1" as="geometry">
                        <mxPoint x="1430" y="317" as="sourcePoint"/>
                        <mxPoint x="1330" y="317" as="targetPoint"/>
                    </mxGeometry>
                </mxCell>
                <mxCell id="exjSf0XK6fxZVPqQZvPU-9" value="&lt;font style=&quot;font-size: 17px;&quot;&gt;&lt;b&gt;①&lt;/b&gt;&lt;/font&gt;" style="text;html=1;strokeColor=none;fillColor=none;align=center;verticalAlign=middle;whiteSpace=wrap;rounded=0;fontSize=15;" vertex="1" parent="1">
                    <mxGeometry x="1360" y="286" width="40" height="30" as="geometry"/>
                </mxCell>
                <mxCell id="exjSf0XK6fxZVPqQZvPU-10" value="" style="endArrow=classic;html=1;fontSize=15;" edge="1" parent="1">
                    <mxGeometry width="50" height="50" relative="1" as="geometry">
                        <mxPoint x="1332" y="345" as="sourcePoint"/>
                        <mxPoint x="1432" y="345" as="targetPoint"/>
                    </mxGeometry>
                </mxCell>
                <mxCell id="exjSf0XK6fxZVPqQZvPU-11" value="&lt;font style=&quot;font-size: 17px;&quot;&gt;&lt;b&gt;④&lt;/b&gt;&lt;/font&gt;" style="text;html=1;strokeColor=none;fillColor=none;align=center;verticalAlign=middle;whiteSpace=wrap;rounded=0;fontSize=15;" vertex="1" parent="1">
                    <mxGeometry x="840" y="275" width="40" height="30" as="geometry"/>
                </mxCell>
                <mxCell id="exjSf0XK6fxZVPqQZvPU-12" value="&lt;font style=&quot;font-size: 17px;&quot;&gt;&lt;b&gt;③&lt;/b&gt;&lt;/font&gt;" style="text;html=1;strokeColor=none;fillColor=none;align=center;verticalAlign=middle;whiteSpace=wrap;rounded=0;fontSize=15;" vertex="1" parent="1">
                    <mxGeometry x="840" y="352" width="40" height="30" as="geometry"/>
                </mxCell>
                <mxCell id="exjSf0XK6fxZVPqQZvPU-13" value="&lt;font style=&quot;font-size: 17px;&quot;&gt;&lt;b&gt;⑥&lt;/b&gt;&lt;/font&gt;" style="text;html=1;strokeColor=none;fillColor=none;align=center;verticalAlign=middle;whiteSpace=wrap;rounded=0;fontSize=15;" vertex="1" parent="1">
                    <mxGeometry x="1360" y="347" width="40" height="30" as="geometry"/>
                </mxCell>
                <mxCell id="exjSf0XK6fxZVPqQZvPU-14" value="Model" style="shape=cylinder3;whiteSpace=wrap;html=1;boundedLbl=1;backgroundOutline=1;size=15;fontSize=15;fillColor=#f8cecc;strokeColor=#b85450;" vertex="1" parent="1">
                    <mxGeometry x="690" y="305" width="100" height="98" as="geometry"/>
                </mxCell>
                <mxCell id="exjSf0XK6fxZVPqQZvPU-15" value="&lt;b&gt;&lt;font style=&quot;font-size: 15px;&quot;&gt;Controller&lt;/font&gt;&lt;/b&gt;" style="rounded=0;whiteSpace=wrap;html=1;fillColor=#ffe6cc;strokeColor=#d79b00;" vertex="1" parent="1">
                    <mxGeometry x="930" y="302" width="120" height="60" as="geometry"/>
                </mxCell>
                <mxCell id="exjSf0XK6fxZVPqQZvPU-16" style="edgeStyle=none;html=1;" edge="1" parent="1">
                    <mxGeometry relative="1" as="geometry">
                        <mxPoint x="1070" y="342" as="targetPoint"/>
                        <mxPoint x="1170" y="342" as="sourcePoint"/>
                    </mxGeometry>
                </mxCell>
                <mxCell id="exjSf0XK6fxZVPqQZvPU-17" style="edgeStyle=none;html=1;" edge="1" parent="1">
                    <mxGeometry relative="1" as="geometry">
                        <mxPoint x="1170" y="312" as="targetPoint"/>
                        <mxPoint x="1070" y="312" as="sourcePoint"/>
                    </mxGeometry>
                </mxCell>
                <mxCell id="exjSf0XK6fxZVPqQZvPU-18" value="&lt;font style=&quot;font-size: 17px;&quot;&gt;&lt;b&gt;②&lt;/b&gt;&lt;/font&gt;" style="text;html=1;strokeColor=none;fillColor=none;align=center;verticalAlign=middle;whiteSpace=wrap;rounded=0;fontSize=15;" vertex="1" parent="1">
                    <mxGeometry x="1100" y="281" width="40" height="30" as="geometry"/>
                </mxCell>
                <mxCell id="exjSf0XK6fxZVPqQZvPU-19" value="&lt;font style=&quot;font-size: 17px;&quot;&gt;&lt;b&gt;⑤&lt;/b&gt;&lt;/font&gt;" style="text;html=1;strokeColor=none;fillColor=none;align=center;verticalAlign=middle;whiteSpace=wrap;rounded=0;fontSize=15;" vertex="1" parent="1">
                    <mxGeometry x="1100" y="344" width="40" height="30" as="geometry"/>
                </mxCell>
                <mxCell id="exjSf0XK6fxZVPqQZvPU-20" style="edgeStyle=none;html=1;" edge="1" parent="1">
                    <mxGeometry relative="1" as="geometry">
                        <mxPoint x="810" y="467" as="targetPoint"/>
                        <mxPoint x="900" y="507" as="sourcePoint"/>
                    </mxGeometry>
                </mxCell>
                <mxCell id="exjSf0XK6fxZVPqQZvPU-21" style="edgeStyle=none;html=1;" edge="1" parent="1">
                    <mxGeometry relative="1" as="geometry">
                        <mxPoint x="899.9999999999998" y="469" as="targetPoint"/>
                        <mxPoint x="810" y="427" as="sourcePoint"/>
                    </mxGeometry>
                </mxCell>
                <mxCell id="exjSf0XK6fxZVPqQZvPU-22" value="&lt;b&gt;&lt;font style=&quot;font-size: 15px;&quot;&gt;View&lt;/font&gt;&lt;/b&gt;" style="rounded=0;whiteSpace=wrap;html=1;fillColor=#dae8fc;strokeColor=#6c8ebf;" vertex="1" parent="1">
                    <mxGeometry x="1190" y="522" width="120" height="60" as="geometry"/>
                </mxCell>
                <mxCell id="exjSf0XK6fxZVPqQZvPU-23" value="User" style="shape=umlActor;verticalLabelPosition=bottom;verticalAlign=top;html=1;outlineConnect=0;fontSize=15;" vertex="1" parent="1">
                    <mxGeometry x="1460" y="502" width="40" height="80" as="geometry"/>
                </mxCell>
                <mxCell id="exjSf0XK6fxZVPqQZvPU-24" value="" style="endArrow=classic;html=1;fontSize=15;" edge="1" parent="1">
                    <mxGeometry width="50" height="50" relative="1" as="geometry">
                        <mxPoint x="1430" y="536" as="sourcePoint"/>
                        <mxPoint x="1330" y="536" as="targetPoint"/>
                    </mxGeometry>
                </mxCell>
                <mxCell id="exjSf0XK6fxZVPqQZvPU-25" value="&lt;font style=&quot;font-size: 17px;&quot;&gt;&lt;b&gt;①&lt;/b&gt;&lt;/font&gt;" style="text;html=1;strokeColor=none;fillColor=none;align=center;verticalAlign=middle;whiteSpace=wrap;rounded=0;fontSize=15;" vertex="1" parent="1">
                    <mxGeometry x="1360" y="495" width="40" height="30" as="geometry"/>
                </mxCell>
                <mxCell id="exjSf0XK6fxZVPqQZvPU-26" value="" style="endArrow=classic;html=1;fontSize=15;" edge="1" parent="1">
                    <mxGeometry width="50" height="50" relative="1" as="geometry">
                        <mxPoint x="1332" y="565" as="sourcePoint"/>
                        <mxPoint x="1432" y="565" as="targetPoint"/>
                    </mxGeometry>
                </mxCell>
                <mxCell id="exjSf0XK6fxZVPqQZvPU-27" value="&lt;font style=&quot;font-size: 17px;&quot;&gt;&lt;b&gt;④&lt;/b&gt;&lt;/font&gt;" style="text;html=1;strokeColor=none;fillColor=none;align=center;verticalAlign=middle;whiteSpace=wrap;rounded=0;fontSize=15;" vertex="1" parent="1">
                    <mxGeometry x="840" y="417" width="40" height="30" as="geometry"/>
                </mxCell>
                <mxCell id="exjSf0XK6fxZVPqQZvPU-28" value="&lt;font style=&quot;font-size: 17px;&quot;&gt;&lt;b&gt;③&lt;/b&gt;&lt;/font&gt;" style="text;html=1;strokeColor=none;fillColor=none;align=center;verticalAlign=middle;whiteSpace=wrap;rounded=0;fontSize=15;" vertex="1" parent="1">
                    <mxGeometry x="820" y="492" width="40" height="30" as="geometry"/>
                </mxCell>
                <mxCell id="exjSf0XK6fxZVPqQZvPU-29" value="&lt;font style=&quot;font-size: 17px;&quot;&gt;&lt;b&gt;⑥&lt;/b&gt;&lt;/font&gt;" style="text;html=1;strokeColor=none;fillColor=none;align=center;verticalAlign=middle;whiteSpace=wrap;rounded=0;fontSize=15;" vertex="1" parent="1">
                    <mxGeometry x="1360" y="568" width="40" height="30" as="geometry"/>
                </mxCell>
                <mxCell id="exjSf0XK6fxZVPqQZvPU-30" value="&lt;b&gt;&lt;font style=&quot;font-size: 15px;&quot;&gt;Controller&lt;/font&gt;&lt;/b&gt;" style="rounded=0;whiteSpace=wrap;html=1;fillColor=#ffe6cc;strokeColor=#d79b00;" vertex="1" parent="1">
                    <mxGeometry x="930" y="522" width="120" height="60" as="geometry"/>
                </mxCell>
                <mxCell id="exjSf0XK6fxZVPqQZvPU-31" style="edgeStyle=none;html=1;" edge="1" parent="1">
                    <mxGeometry relative="1" as="geometry">
                        <mxPoint x="1069.9999999999998" y="562" as="targetPoint"/>
                        <mxPoint x="1169.9999999999998" y="562" as="sourcePoint"/>
                    </mxGeometry>
                </mxCell>
                <mxCell id="exjSf0XK6fxZVPqQZvPU-32" style="edgeStyle=none;html=1;" edge="1" parent="1">
                    <mxGeometry relative="1" as="geometry">
                        <mxPoint x="1169.9999999999998" y="532" as="targetPoint"/>
                        <mxPoint x="1069.9999999999998" y="532" as="sourcePoint"/>
                    </mxGeometry>
                </mxCell>
                <mxCell id="exjSf0XK6fxZVPqQZvPU-33" value="&lt;font style=&quot;font-size: 17px;&quot;&gt;&lt;b&gt;②&lt;/b&gt;&lt;/font&gt;" style="text;html=1;strokeColor=none;fillColor=none;align=center;verticalAlign=middle;whiteSpace=wrap;rounded=0;fontSize=15;" vertex="1" parent="1">
                    <mxGeometry x="1100" y="501" width="40" height="30" as="geometry"/>
                </mxCell>
                <mxCell id="exjSf0XK6fxZVPqQZvPU-34" value="&lt;font style=&quot;font-size: 17px;&quot;&gt;&lt;b&gt;⑤&lt;/b&gt;&lt;/font&gt;" style="text;html=1;strokeColor=none;fillColor=none;align=center;verticalAlign=middle;whiteSpace=wrap;rounded=0;fontSize=15;" vertex="1" parent="1">
                    <mxGeometry x="1100" y="564" width="40" height="30" as="geometry"/>
                </mxCell>
                <mxCell id="exjSf0XK6fxZVPqQZvPU-35" style="edgeStyle=none;html=1;strokeColor=#FF8000;strokeWidth=2;exitX=0.75;exitY=1;exitDx=0;exitDy=0;" edge="1" parent="1" source="exjSf0XK6fxZVPqQZvPU-36">
                    <mxGeometry relative="1" as="geometry">
                        <mxPoint x="930" y="290" as="targetPoint"/>
                    </mxGeometry>
                </mxCell>
                <mxCell id="exjSf0XK6fxZVPqQZvPU-36" value="&lt;b&gt;&lt;font style=&quot;font-size: 15px;&quot;&gt;AppController&lt;/font&gt;&lt;/b&gt;" style="rounded=0;whiteSpace=wrap;html=1;fillColor=#fff2cc;strokeColor=#d6b656;" vertex="1" parent="1">
                    <mxGeometry x="770" y="165" width="120" height="60" as="geometry"/>
                </mxCell>
                <mxCell id="exjSf0XK6fxZVPqQZvPU-38" value="&lt;b&gt;&lt;font color=&quot;#0000cc&quot;&gt;Page2&lt;/font&gt;&lt;/b&gt;" style="text;html=1;strokeColor=none;fillColor=none;align=center;verticalAlign=middle;whiteSpace=wrap;rounded=0;strokeWidth=2;" vertex="1" parent="1">
                    <mxGeometry x="930" y="456" width="60" height="30" as="geometry"/>
                </mxCell>
                <mxCell id="exjSf0XK6fxZVPqQZvPU-39" value="&lt;b&gt;&lt;font color=&quot;#0000cc&quot;&gt;Page1&lt;/font&gt;&lt;/b&gt;" style="text;html=1;strokeColor=none;fillColor=none;align=center;verticalAlign=middle;whiteSpace=wrap;rounded=0;strokeWidth=2;" vertex="1" parent="1">
                    <mxGeometry x="930" y="245" width="60" height="30" as="geometry"/>
                </mxCell>
                <mxCell id="exjSf0XK6fxZVPqQZvPU-46" style="edgeStyle=none;html=1;entryX=0.008;entryY=0.464;entryDx=0;entryDy=0;entryPerimeter=0;strokeColor=#66CC00;strokeWidth=2;" edge="1" parent="1" source="exjSf0XK6fxZVPqQZvPU-41" target="exjSf0XK6fxZVPqQZvPU-43">
                    <mxGeometry relative="1" as="geometry"/>
                </mxCell>
                <mxCell id="exjSf0XK6fxZVPqQZvPU-41" value="&lt;b&gt;&lt;font style=&quot;font-size: 15px;&quot;&gt;Appクラス&lt;/font&gt;&lt;/b&gt;" style="rounded=0;whiteSpace=wrap;html=1;fillColor=#d5e8d4;strokeColor=#82b366;" vertex="1" parent="1">
                    <mxGeometry x="330" y="352" width="120" height="60" as="geometry"/>
                </mxCell>
                <mxCell id="exjSf0XK6fxZVPqQZvPU-47" value="" style="edgeStyle=none;html=1;strokeColor=#66CC00;strokeWidth=2;" edge="1" parent="1" source="exjSf0XK6fxZVPqQZvPU-42" target="exjSf0XK6fxZVPqQZvPU-41">
                    <mxGeometry relative="1" as="geometry"/>
                </mxCell>
                <mxCell id="exjSf0XK6fxZVPqQZvPU-42" value="&lt;span style=&quot;font-size: 15px;&quot;&gt;&lt;b&gt;main関数&lt;/b&gt;&lt;/span&gt;" style="rounded=0;whiteSpace=wrap;html=1;fillColor=#d5e8d4;strokeColor=#82b366;" vertex="1" parent="1">
                    <mxGeometry x="120" y="355" width="120" height="60" as="geometry"/>
                </mxCell>
                <mxCell id="exjSf0XK6fxZVPqQZvPU-45" style="edgeStyle=none;html=1;entryX=0;entryY=0.5;entryDx=0;entryDy=0;" edge="1" parent="1" source="exjSf0XK6fxZVPqQZvPU-44" target="exjSf0XK6fxZVPqQZvPU-36">
                    <mxGeometry relative="1" as="geometry"/>
                </mxCell>
                <mxCell id="exjSf0XK6fxZVPqQZvPU-44" value="&lt;b&gt;&lt;font style=&quot;font-size: 15px;&quot;&gt;CustomCTk&lt;/font&gt;&lt;/b&gt;" style="rounded=0;whiteSpace=wrap;html=1;fillColor=#e1d5e7;strokeColor=#9673a6;" vertex="1" parent="1">
                    <mxGeometry x="570" y="200" width="120" height="60" as="geometry"/>
                </mxCell>
            </root>
        </mxGraphModel>
    </diagram>
    <diagram name="MVCの実現方法_bk" id="qtw9yvQol0h5I976DCaR">
        <mxGraphModel dx="1209" dy="563" grid="1" gridSize="10" guides="1" tooltips="1" connect="1" arrows="1" fold="1" page="1" pageScale="1" pageWidth="827" pageHeight="1169" math="0" shadow="0">
            <root>
                <mxCell id="SxRMwhV-MYU9DIZSYsx9-0"/>
                <mxCell id="SxRMwhV-MYU9DIZSYsx9-1" parent="SxRMwhV-MYU9DIZSYsx9-0"/>
                <mxCell id="SxRMwhV-MYU9DIZSYsx9-2" value="" style="rounded=1;whiteSpace=wrap;html=1;fillColor=none;strokeColor=#0000CC;strokeWidth=2;" vertex="1" parent="SxRMwhV-MYU9DIZSYsx9-1">
                    <mxGeometry x="330" y="210" width="650" height="155" as="geometry"/>
                </mxCell>
                <mxCell id="SxRMwhV-MYU9DIZSYsx9-3" value="" style="rounded=1;whiteSpace=wrap;html=1;fillColor=none;strokeColor=#0000CC;strokeWidth=2;" vertex="1" parent="SxRMwhV-MYU9DIZSYsx9-1">
                    <mxGeometry x="330" y="420" width="650" height="160" as="geometry"/>
                </mxCell>
                <mxCell id="SxRMwhV-MYU9DIZSYsx9-4" value="" style="rounded=1;whiteSpace=wrap;html=1;strokeColor=#FF8000;fillColor=none;strokeWidth=2;" vertex="1" parent="SxRMwhV-MYU9DIZSYsx9-1">
                    <mxGeometry x="340" y="260" width="140" height="315" as="geometry"/>
                </mxCell>
                <mxCell id="SxRMwhV-MYU9DIZSYsx9-5" style="edgeStyle=none;html=1;" edge="1" parent="SxRMwhV-MYU9DIZSYsx9-1">
                    <mxGeometry relative="1" as="geometry">
                        <mxPoint x="230" y="312" as="targetPoint"/>
                        <mxPoint x="330" y="312" as="sourcePoint"/>
                    </mxGeometry>
                </mxCell>
                <mxCell id="SxRMwhV-MYU9DIZSYsx9-6" style="edgeStyle=none;html=1;" edge="1" parent="SxRMwhV-MYU9DIZSYsx9-1">
                    <mxGeometry relative="1" as="geometry">
                        <mxPoint x="330" y="282" as="targetPoint"/>
                        <mxPoint x="230" y="282" as="sourcePoint"/>
                    </mxGeometry>
                </mxCell>
                <mxCell id="SxRMwhV-MYU9DIZSYsx9-7" value="&lt;b&gt;&lt;font style=&quot;font-size: 15px;&quot;&gt;View&lt;/font&gt;&lt;/b&gt;" style="rounded=0;whiteSpace=wrap;html=1;fillColor=#dae8fc;strokeColor=#6c8ebf;" vertex="1" parent="SxRMwhV-MYU9DIZSYsx9-1">
                    <mxGeometry x="610" y="272" width="120" height="60" as="geometry"/>
                </mxCell>
                <mxCell id="SxRMwhV-MYU9DIZSYsx9-8" value="User" style="shape=umlActor;verticalLabelPosition=bottom;verticalAlign=top;html=1;outlineConnect=0;fontSize=15;" vertex="1" parent="SxRMwhV-MYU9DIZSYsx9-1">
                    <mxGeometry x="880" y="252" width="40" height="80" as="geometry"/>
                </mxCell>
                <mxCell id="SxRMwhV-MYU9DIZSYsx9-9" value="" style="endArrow=classic;html=1;fontSize=15;" edge="1" parent="SxRMwhV-MYU9DIZSYsx9-1">
                    <mxGeometry width="50" height="50" relative="1" as="geometry">
                        <mxPoint x="850" y="287" as="sourcePoint"/>
                        <mxPoint x="750" y="287" as="targetPoint"/>
                    </mxGeometry>
                </mxCell>
                <mxCell id="SxRMwhV-MYU9DIZSYsx9-10" value="&lt;font style=&quot;font-size: 17px;&quot;&gt;&lt;b&gt;①&lt;/b&gt;&lt;/font&gt;" style="text;html=1;strokeColor=none;fillColor=none;align=center;verticalAlign=middle;whiteSpace=wrap;rounded=0;fontSize=15;" vertex="1" parent="SxRMwhV-MYU9DIZSYsx9-1">
                    <mxGeometry x="780" y="256" width="40" height="30" as="geometry"/>
                </mxCell>
                <mxCell id="SxRMwhV-MYU9DIZSYsx9-11" value="" style="endArrow=classic;html=1;fontSize=15;" edge="1" parent="SxRMwhV-MYU9DIZSYsx9-1">
                    <mxGeometry width="50" height="50" relative="1" as="geometry">
                        <mxPoint x="751.9999999999998" y="315" as="sourcePoint"/>
                        <mxPoint x="851.9999999999998" y="315" as="targetPoint"/>
                    </mxGeometry>
                </mxCell>
                <mxCell id="SxRMwhV-MYU9DIZSYsx9-12" value="&lt;font style=&quot;font-size: 17px;&quot;&gt;&lt;b&gt;④&lt;/b&gt;&lt;/font&gt;" style="text;html=1;strokeColor=none;fillColor=none;align=center;verticalAlign=middle;whiteSpace=wrap;rounded=0;fontSize=15;" vertex="1" parent="SxRMwhV-MYU9DIZSYsx9-1">
                    <mxGeometry x="260" y="245" width="40" height="30" as="geometry"/>
                </mxCell>
                <mxCell id="SxRMwhV-MYU9DIZSYsx9-13" value="&lt;font style=&quot;font-size: 17px;&quot;&gt;&lt;b&gt;③&lt;/b&gt;&lt;/font&gt;" style="text;html=1;strokeColor=none;fillColor=none;align=center;verticalAlign=middle;whiteSpace=wrap;rounded=0;fontSize=15;" vertex="1" parent="SxRMwhV-MYU9DIZSYsx9-1">
                    <mxGeometry x="260" y="322" width="40" height="30" as="geometry"/>
                </mxCell>
                <mxCell id="SxRMwhV-MYU9DIZSYsx9-14" value="&lt;font style=&quot;font-size: 17px;&quot;&gt;&lt;b&gt;⑥&lt;/b&gt;&lt;/font&gt;" style="text;html=1;strokeColor=none;fillColor=none;align=center;verticalAlign=middle;whiteSpace=wrap;rounded=0;fontSize=15;" vertex="1" parent="SxRMwhV-MYU9DIZSYsx9-1">
                    <mxGeometry x="780" y="317" width="40" height="30" as="geometry"/>
                </mxCell>
                <mxCell id="SxRMwhV-MYU9DIZSYsx9-15" value="Model" style="shape=cylinder3;whiteSpace=wrap;html=1;boundedLbl=1;backgroundOutline=1;size=15;fontSize=15;fillColor=#f8cecc;strokeColor=#b85450;" vertex="1" parent="SxRMwhV-MYU9DIZSYsx9-1">
                    <mxGeometry x="110" y="275" width="100" height="98" as="geometry"/>
                </mxCell>
                <mxCell id="SxRMwhV-MYU9DIZSYsx9-16" value="&lt;b&gt;&lt;font style=&quot;font-size: 15px;&quot;&gt;Controller&lt;/font&gt;&lt;/b&gt;" style="rounded=0;whiteSpace=wrap;html=1;fillColor=#ffe6cc;strokeColor=#d79b00;" vertex="1" parent="SxRMwhV-MYU9DIZSYsx9-1">
                    <mxGeometry x="350" y="272" width="120" height="60" as="geometry"/>
                </mxCell>
                <mxCell id="SxRMwhV-MYU9DIZSYsx9-17" style="edgeStyle=none;html=1;" edge="1" parent="SxRMwhV-MYU9DIZSYsx9-1">
                    <mxGeometry relative="1" as="geometry">
                        <mxPoint x="490" y="312" as="targetPoint"/>
                        <mxPoint x="590" y="312" as="sourcePoint"/>
                    </mxGeometry>
                </mxCell>
                <mxCell id="SxRMwhV-MYU9DIZSYsx9-18" style="edgeStyle=none;html=1;" edge="1" parent="SxRMwhV-MYU9DIZSYsx9-1">
                    <mxGeometry relative="1" as="geometry">
                        <mxPoint x="590" y="282" as="targetPoint"/>
                        <mxPoint x="490" y="282" as="sourcePoint"/>
                    </mxGeometry>
                </mxCell>
                <mxCell id="SxRMwhV-MYU9DIZSYsx9-19" value="&lt;font style=&quot;font-size: 17px;&quot;&gt;&lt;b&gt;②&lt;/b&gt;&lt;/font&gt;" style="text;html=1;strokeColor=none;fillColor=none;align=center;verticalAlign=middle;whiteSpace=wrap;rounded=0;fontSize=15;" vertex="1" parent="SxRMwhV-MYU9DIZSYsx9-1">
                    <mxGeometry x="520" y="251" width="40" height="30" as="geometry"/>
                </mxCell>
                <mxCell id="SxRMwhV-MYU9DIZSYsx9-20" value="&lt;font style=&quot;font-size: 17px;&quot;&gt;&lt;b&gt;⑤&lt;/b&gt;&lt;/font&gt;" style="text;html=1;strokeColor=none;fillColor=none;align=center;verticalAlign=middle;whiteSpace=wrap;rounded=0;fontSize=15;" vertex="1" parent="SxRMwhV-MYU9DIZSYsx9-1">
                    <mxGeometry x="520" y="314" width="40" height="30" as="geometry"/>
                </mxCell>
                <mxCell id="SxRMwhV-MYU9DIZSYsx9-21" style="edgeStyle=none;html=1;" edge="1" parent="SxRMwhV-MYU9DIZSYsx9-1">
                    <mxGeometry relative="1" as="geometry">
                        <mxPoint x="230" y="437" as="targetPoint"/>
                        <mxPoint x="320" y="477" as="sourcePoint"/>
                    </mxGeometry>
                </mxCell>
                <mxCell id="SxRMwhV-MYU9DIZSYsx9-22" style="edgeStyle=none;html=1;" edge="1" parent="SxRMwhV-MYU9DIZSYsx9-1">
                    <mxGeometry relative="1" as="geometry">
                        <mxPoint x="319.9999999999998" y="439" as="targetPoint"/>
                        <mxPoint x="230" y="397" as="sourcePoint"/>
                    </mxGeometry>
                </mxCell>
                <mxCell id="SxRMwhV-MYU9DIZSYsx9-23" value="&lt;b&gt;&lt;font style=&quot;font-size: 15px;&quot;&gt;View&lt;/font&gt;&lt;/b&gt;" style="rounded=0;whiteSpace=wrap;html=1;fillColor=#dae8fc;strokeColor=#6c8ebf;" vertex="1" parent="SxRMwhV-MYU9DIZSYsx9-1">
                    <mxGeometry x="610" y="492" width="120" height="60" as="geometry"/>
                </mxCell>
                <mxCell id="SxRMwhV-MYU9DIZSYsx9-24" value="User" style="shape=umlActor;verticalLabelPosition=bottom;verticalAlign=top;html=1;outlineConnect=0;fontSize=15;" vertex="1" parent="SxRMwhV-MYU9DIZSYsx9-1">
                    <mxGeometry x="880" y="472" width="40" height="80" as="geometry"/>
                </mxCell>
                <mxCell id="SxRMwhV-MYU9DIZSYsx9-25" value="" style="endArrow=classic;html=1;fontSize=15;" edge="1" parent="SxRMwhV-MYU9DIZSYsx9-1">
                    <mxGeometry width="50" height="50" relative="1" as="geometry">
                        <mxPoint x="850" y="506" as="sourcePoint"/>
                        <mxPoint x="750" y="506" as="targetPoint"/>
                    </mxGeometry>
                </mxCell>
                <mxCell id="SxRMwhV-MYU9DIZSYsx9-26" value="&lt;font style=&quot;font-size: 17px;&quot;&gt;&lt;b&gt;①&lt;/b&gt;&lt;/font&gt;" style="text;html=1;strokeColor=none;fillColor=none;align=center;verticalAlign=middle;whiteSpace=wrap;rounded=0;fontSize=15;" vertex="1" parent="SxRMwhV-MYU9DIZSYsx9-1">
                    <mxGeometry x="780" y="465" width="40" height="30" as="geometry"/>
                </mxCell>
                <mxCell id="SxRMwhV-MYU9DIZSYsx9-27" value="" style="endArrow=classic;html=1;fontSize=15;" edge="1" parent="SxRMwhV-MYU9DIZSYsx9-1">
                    <mxGeometry width="50" height="50" relative="1" as="geometry">
                        <mxPoint x="752" y="535" as="sourcePoint"/>
                        <mxPoint x="852" y="535" as="targetPoint"/>
                    </mxGeometry>
                </mxCell>
                <mxCell id="SxRMwhV-MYU9DIZSYsx9-28" value="&lt;font style=&quot;font-size: 17px;&quot;&gt;&lt;b&gt;④&lt;/b&gt;&lt;/font&gt;" style="text;html=1;strokeColor=none;fillColor=none;align=center;verticalAlign=middle;whiteSpace=wrap;rounded=0;fontSize=15;" vertex="1" parent="SxRMwhV-MYU9DIZSYsx9-1">
                    <mxGeometry x="260" y="387" width="40" height="30" as="geometry"/>
                </mxCell>
                <mxCell id="SxRMwhV-MYU9DIZSYsx9-29" value="&lt;font style=&quot;font-size: 17px;&quot;&gt;&lt;b&gt;③&lt;/b&gt;&lt;/font&gt;" style="text;html=1;strokeColor=none;fillColor=none;align=center;verticalAlign=middle;whiteSpace=wrap;rounded=0;fontSize=15;" vertex="1" parent="SxRMwhV-MYU9DIZSYsx9-1">
                    <mxGeometry x="240" y="462" width="40" height="30" as="geometry"/>
                </mxCell>
                <mxCell id="SxRMwhV-MYU9DIZSYsx9-30" value="&lt;font style=&quot;font-size: 17px;&quot;&gt;&lt;b&gt;⑥&lt;/b&gt;&lt;/font&gt;" style="text;html=1;strokeColor=none;fillColor=none;align=center;verticalAlign=middle;whiteSpace=wrap;rounded=0;fontSize=15;" vertex="1" parent="SxRMwhV-MYU9DIZSYsx9-1">
                    <mxGeometry x="780" y="538" width="40" height="30" as="geometry"/>
                </mxCell>
                <mxCell id="SxRMwhV-MYU9DIZSYsx9-31" value="&lt;b&gt;&lt;font style=&quot;font-size: 15px;&quot;&gt;Controller&lt;/font&gt;&lt;/b&gt;" style="rounded=0;whiteSpace=wrap;html=1;fillColor=#ffe6cc;strokeColor=#d79b00;" vertex="1" parent="SxRMwhV-MYU9DIZSYsx9-1">
                    <mxGeometry x="350" y="492" width="120" height="60" as="geometry"/>
                </mxCell>
                <mxCell id="SxRMwhV-MYU9DIZSYsx9-32" style="edgeStyle=none;html=1;" edge="1" parent="SxRMwhV-MYU9DIZSYsx9-1">
                    <mxGeometry relative="1" as="geometry">
                        <mxPoint x="489.9999999999998" y="532" as="targetPoint"/>
                        <mxPoint x="589.9999999999998" y="532" as="sourcePoint"/>
                    </mxGeometry>
                </mxCell>
                <mxCell id="SxRMwhV-MYU9DIZSYsx9-33" style="edgeStyle=none;html=1;" edge="1" parent="SxRMwhV-MYU9DIZSYsx9-1">
                    <mxGeometry relative="1" as="geometry">
                        <mxPoint x="589.9999999999998" y="502" as="targetPoint"/>
                        <mxPoint x="489.9999999999998" y="502" as="sourcePoint"/>
                    </mxGeometry>
                </mxCell>
                <mxCell id="SxRMwhV-MYU9DIZSYsx9-34" value="&lt;font style=&quot;font-size: 17px;&quot;&gt;&lt;b&gt;②&lt;/b&gt;&lt;/font&gt;" style="text;html=1;strokeColor=none;fillColor=none;align=center;verticalAlign=middle;whiteSpace=wrap;rounded=0;fontSize=15;" vertex="1" parent="SxRMwhV-MYU9DIZSYsx9-1">
                    <mxGeometry x="520" y="471" width="40" height="30" as="geometry"/>
                </mxCell>
                <mxCell id="SxRMwhV-MYU9DIZSYsx9-35" value="&lt;font style=&quot;font-size: 17px;&quot;&gt;&lt;b&gt;⑤&lt;/b&gt;&lt;/font&gt;" style="text;html=1;strokeColor=none;fillColor=none;align=center;verticalAlign=middle;whiteSpace=wrap;rounded=0;fontSize=15;" vertex="1" parent="SxRMwhV-MYU9DIZSYsx9-1">
                    <mxGeometry x="520" y="534" width="40" height="30" as="geometry"/>
                </mxCell>
                <mxCell id="SxRMwhV-MYU9DIZSYsx9-36" style="edgeStyle=none;html=1;strokeColor=#FF8000;strokeWidth=2;exitX=0.75;exitY=1;exitDx=0;exitDy=0;" edge="1" parent="SxRMwhV-MYU9DIZSYsx9-1" source="SxRMwhV-MYU9DIZSYsx9-37">
                    <mxGeometry relative="1" as="geometry">
                        <mxPoint x="350" y="260" as="targetPoint"/>
                    </mxGeometry>
                </mxCell>
                <mxCell id="SxRMwhV-MYU9DIZSYsx9-37" value="&lt;b&gt;&lt;font style=&quot;font-size: 15px;&quot;&gt;App&lt;/font&gt;&lt;/b&gt;" style="rounded=0;whiteSpace=wrap;html=1;fillColor=#ffe6cc;strokeColor=#d79b00;" vertex="1" parent="SxRMwhV-MYU9DIZSYsx9-1">
                    <mxGeometry x="190" y="135" width="120" height="60" as="geometry"/>
                </mxCell>
                <mxCell id="SxRMwhV-MYU9DIZSYsx9-38" value="Appクラスで全てのContorllerを&lt;br&gt;管理し、ページごとにControllerを&lt;br&gt;切替えて他ページとの連携を行う" style="shape=callout;whiteSpace=wrap;html=1;perimeter=calloutPerimeter;strokeColor=#FF8000;strokeWidth=2;fillColor=default;position2=0;size=30;position=0.18;" vertex="1" parent="SxRMwhV-MYU9DIZSYsx9-1">
                    <mxGeometry x="330" y="80" width="220" height="90" as="geometry"/>
                </mxCell>
                <mxCell id="SxRMwhV-MYU9DIZSYsx9-39" value="&lt;b&gt;&lt;font color=&quot;#0000cc&quot;&gt;Page2&lt;/font&gt;&lt;/b&gt;" style="text;html=1;strokeColor=none;fillColor=none;align=center;verticalAlign=middle;whiteSpace=wrap;rounded=0;strokeWidth=2;" vertex="1" parent="SxRMwhV-MYU9DIZSYsx9-1">
                    <mxGeometry x="350" y="426" width="60" height="30" as="geometry"/>
                </mxCell>
                <mxCell id="SxRMwhV-MYU9DIZSYsx9-40" value="&lt;b&gt;&lt;font color=&quot;#0000cc&quot;&gt;Page1&lt;/font&gt;&lt;/b&gt;" style="text;html=1;strokeColor=none;fillColor=none;align=center;verticalAlign=middle;whiteSpace=wrap;rounded=0;strokeWidth=2;" vertex="1" parent="SxRMwhV-MYU9DIZSYsx9-1">
                    <mxGeometry x="350" y="215" width="60" height="30" as="geometry"/>
                </mxCell>
            </root>
        </mxGraphModel>
    </diagram>
</mxfile>